<svg width="154" height="432" viewBox="0 0 154 432" fill="none" xmlns="http://www.w3.org/2000/svg">
<mask id="mask0_9_4" style="mask-type:alpha" maskUnits="userSpaceOnUse" x="0" y="0" width="154" height="432">
<rect width="154" height="432" fill="#C4C4C4"/>
</mask>
<g mask="url(#mask0_9_4)">
<path fill-rule="evenodd" clip-rule="evenodd" d="M177.5 400C275.531 400 355 320.531 355 222.5C355 124.469 275.531 45 177.5 45C79.4695 45 0 124.469 0 222.5C0 320.531 79.4695 400 177.5 400Z" fill="url(#paint0_linear_9_4)"/>
<path fill-rule="evenodd" clip-rule="evenodd" d="M61.5 166C95.4655 166 123 138.466 123 104.5C123 70.5345 95.4655 43 61.5 43C27.5345 43 0 70.5345 0 104.5C0 138.466 27.5345 166 61.5 166Z" fill="url(#paint1_linear_9_4)"/>
</g>
<defs>
<linearGradient id="paint0_linear_9_4" x1="200.172" y1="483.922" x2="440.821" y2="235.657" gradientUnits="userSpaceOnUse">
<stop stop-color="#CD10FF"/>
<stop offset="1" stop-color="#9F06FF"/>
</linearGradient>
<linearGradient id="paint1_linear_9_4" x1="63.658" y1="192.499" x2="126.315" y2="105.342" gradientUnits="userSpaceOnUse">
<stop stop-color="#FFD7A9"/>
<stop offset="1" stop-color="#FFAE70"/>
</linearGradient>
</defs>
</svg>
